HIERARCHY
ROOT Hips
{
	OFFSET 0.000000 0.000000 0.000000
	CHANNELS 6 Xposition Yposition Zposition Zrotation Yrotation Xrotation 
	JOINT LHipJoint
	{
		OFFSET 0.000000 0.000000 0.000000
		CHANNELS 3 Zrotation Yrotation Xrotation
		JOINT LeftUpLeg
		{
			OFFSET 1.363060 -1.794630 0.839290
			CHANNELS 3 Zrotation Yrotation Xrotation
			JOINT LeftLeg
			{
				OFFSET 2.448110 -6.726130 0.000000
				CHANNELS 3 Zrotation Yrotation Xrotation
				JOINT LeftFoot
				{
					OFFSET 2.562200 -7.039590 0.000000
					CHANNELS 3 Zrotation Yrotation Xrotation
					JOINT LeftToeBase
					{
						OFFSET 0.157640 -0.433110 2.322550
						CHANNELS 3 Zrotation Yrotation Xrotation
						End Site
						{
							OFFSET 0.000000 0.000000 0.000000
						}
					}
				}
			}
		}
	}
	JOINT RHipJoint
	{
		OFFSET 0.000000 0.000000 0.000000
		CHANNELS 3 Zrotation Yrotation Xrotation
		JOINT RightUpLeg
		{
			OFFSET -1.305520 -1.794630 0.839290
			CHANNELS 3 Zrotation Yrotation Xrotation
			JOINT RightLeg
			{
				OFFSET -2.542530 -6.985550 0.000000
				CHANNELS 3 Zrotation Yrotation Xrotation
				JOINT RightFoot
				{
					OFFSET -2.568260 -7.056230 0.000000
					CHANNELS 3 Zrotation Yrotation Xrotation
					JOINT RightToeBase
					{
						OFFSET -0.164730 -0.452590 2.363150
						CHANNELS 3 Zrotation Yrotation Xrotation
						End Site
						{
							OFFSET 0.000000 0.000000 0.000000
						}
					}
				}
			}
		}
	}
	JOINT LowerBack
	{
		OFFSET 0.000000 0.000000 0.000000
		CHANNELS 3 Zrotation Yrotation Xrotation
		JOINT Spine
		{
			OFFSET 0.028270 2.035590 -0.193380
			CHANNELS 3 Zrotation Yrotation Xrotation
			JOINT Spine1
			{
				OFFSET 0.056720 2.048850 -0.042750
				CHANNELS 3 Zrotation Yrotation Xrotation
				JOINT Neck
				{
					OFFSET 0.000000 0.000000 0.000000
					CHANNELS 3 Zrotation Yrotation Xrotation
					JOINT Neck1
					{
						OFFSET -0.054170 1.746240 0.172020
						CHANNELS 3 Zrotation Yrotation Xrotation
						JOINT Head
						{
							OFFSET 0.104070 1.761360 -0.123970
							CHANNELS 3 Zrotation Yrotation Xrotation
							End Site
							{
								OFFSET 0.000000 0.000000 0.000000
							}
						}
					}
				}
				JOINT LeftShoulder
				{
					OFFSET 0.000000 0.000000 0.000000
					CHANNELS 3 Zrotation Yrotation Xrotation
					JOINT LeftArm
					{
						OFFSET 3.362410 1.200890 -0.311210
						CHANNELS 3 Zrotation Yrotation Xrotation
						JOINT LeftForeArm
						{
							OFFSET 4.983000 -0.000000 -0.000000
							CHANNELS 3 Zrotation Yrotation Xrotation
							JOINT LeftHand
							{
								OFFSET 3.483560 -0.000000 -0.000000
								CHANNELS 3 Zrotation Yrotation Xrotation
								JOINT LeftFingerBase
								{
									OFFSET 0.000000 0.000000 0.000000
									CHANNELS 3 Zrotation Yrotation Xrotation
									JOINT LeftHandIndex1
									{
										OFFSET 0.715260 -0.000000 -0.000000
										CHANNELS 3 Zrotation Yrotation Xrotation
										End Site
										{
											OFFSET 0.000000 0.000000 0.000000
										}
									}
								}
								JOINT LThumb
								{
									OFFSET 0.000000 0.000000 0.000000
									CHANNELS 3 Zrotation Yrotation Xrotation
									End Site
									{
										OFFSET 0.000000 0.000000 0.000000
									}
								}
							}
						}
					}
				}
				JOINT RightShoulder
				{
					OFFSET 0.000000 0.000000 0.000000
					CHANNELS 3 Zrotation Yrotation Xrotation
					JOINT RightArm
					{
						OFFSET -3.136600 1.374050 -0.404650
						CHANNELS 3 Zrotation Yrotation Xrotation
						JOINT RightForeArm
						{
							OFFSET -5.241900 -0.000000 -0.000000
							CHANNELS 3 Zrotation Yrotation Xrotation
							JOINT RightHand
							{
								OFFSET -3.444170 -0.000000 -0.000000
								CHANNELS 3 Zrotation Yrotation Xrotation
								JOINT RightFingerBase
								{
									OFFSET 0.000000 0.000000 0.000000
									CHANNELS 3 Zrotation Yrotation Xrotation
									JOINT RightHandIndex1
									{
										OFFSET -0.622530 -0.000000 -0.000000
										CHANNELS 3 Zrotation Yrotation Xrotation
										End Site
										{
											OFFSET 0.000000 0.000000 0.000000
										}
									}
								}
								JOINT RThumb
								{
									OFFSET 0.000000 0.000000 0.000000
									CHANNELS 3 Zrotation Yrotation Xrotation
									End Site
									{
										OFFSET 0.000000 0.000000 0.000000
									}
								}
							}
						}
					}
				}
			}
		}
	}
}
MOTION
Frames: 9
Frame Time: 0.008333
1.633230 16.962477 2.567934 2.704131 35.521328 17.639725 -11.138910 2.048375 -3.898055 -6.736244 16.744106 -7.342294 -2.106257 0.584977 19.234807 1.720746 11.594602 -5.698001 0.307301 0.000000 -57.232600 8.830509 0.544104 -0.228375 11.625469 -3.999347 -36.480902 2.356718 0.109067 10.704756 -2.820488 -13.489876 0.828744 -3.513101 -0.000000 -11.423800 5.445254 -2.030980 7.771707 0.085409 -1.852540 -1.349052 -7.652522 -1.901308 0.811805 9.785974 0.488901 4.342676 -5.561441 -0.443103 2.783695 0.000000 0.000000 0.000000 -9.706168 -4.654903 0.624574 -77.483579 -22.592239 32.669036 -2.807640 -32.359281 -0.007681 3.933942 -2.045348 -0.078003 -0.105422 0.195900 0.000000 0.000000 0.000000 0.000000 0.000000 0.000000 0.000000 23.709418 -4.215904 -0.665854 71.619311 -1.821670 -7.155942 3.687361 14.490894 0.003395 3.299605 3.486295 0.098824 0.055208 0.000189 0.000000 0.000000 0.000000 0.000000 0.000000 0.000000 0.000000 
1.652462 16.979658 2.671741 2.803274 35.396636 17.628578 -11.208411 2.074116 -3.924496 -6.467390 16.735787 -7.374588 -2.011965 0.696311 20.016170 1.705649 11.747991 -4.534216 0.559101 0.000000 -58.909800 8.787333 0.521664 -0.300659 11.635306 -3.885132 -36.453052 2.334173 -0.006497 11.827413 -2.837804 -13.328987 0.021772 -3.262300 0.000000 -10.428200 5.642195 -1.998400 7.910875 0.131728 -1.809668 -1.334895 -7.612949 -1.863162 0.772974 9.733679 0.716662 4.373474 -5.532063 -0.441359 2.790550 0.000000 0.000000 0.000000 -9.954275 -4.532423 0.618530 -78.162023 -22.153483 33.103243 -2.759597 -32.201815 -0.007086 3.631342 -1.991786 -0.070327 -0.099635 0.197340 0.000000 0.000000 0.000000 0.000000 0.000000 0.000000 0.000000 23.562162 -3.934390 -0.646771 71.530685 -1.651985 -7.234276 3.705746 14.256390 0.003597 3.243030 3.555294 0.098929 0.056440 -0.000709 0.000000 0.000000 0.000000 0.000000 0.000000 0.000000 0.000000 
1.668277 16.998142 2.775800 2.931753 35.280568 17.600240 -11.268971 2.103113 -3.977386 -6.197440 16.818094 -7.420225 -1.920466 0.815016 20.853793 1.680574 11.821180 -3.267560 0.825500 0.000000 -60.702100 8.761329 0.510119 -0.381823 11.608018 -3.797083 -36.315625 2.307605 -0.107690 12.835242 -2.855668 -13.172628 -0.821857 -3.004200 0.000001 -9.443700 5.787528 -1.978658 8.081340 0.169030 -1.776059 -1.314097 -7.567543 -1.833941 0.731399 9.705187 0.967852 4.425187 -5.496652 -0.439387 2.802599 0.000000 0.000000 0.000000 -10.101108 -4.457950 0.618555 -78.816233 -21.708467 33.514106 -2.720477 -31.976366 -0.006161 3.210167 -1.859865 -0.058354 -0.092934 0.197733 0.000000 0.000000 0.000000 0.000000 0.000000 0.000000 0.000000 23.405535 -3.633910 -0.629609 71.459038 -1.440305 -7.302806 3.718829 14.038994 0.003810 3.188607 3.643506 0.099733 0.057426 -0.001694 0.000000 0.000000 0.000000 0.000000 0.000000 0.000000 0.000000 
1.680636 17.017060 2.880623 3.089456 35.193599 17.562834 -11.321494 2.135013 -4.047437 -5.920736 16.973434 -7.499609 -1.832535 0.939919 21.759068 1.646021 11.800367 -1.926339 1.092700 0.000000 -62.577000 8.752431 0.507839 -0.469809 11.553858 -3.753372 -36.074039 2.278425 -0.191190 13.695744 -2.875740 -13.041725 -1.652512 -2.756300 0.000000 -8.516199 5.884824 -1.973624 8.267317 0.198054 -1.755130 -1.289359 -7.516794 -1.817013 0.689033 9.705109 1.228503 4.496449 -5.456201 -0.437273 2.819850 0.000000 0.000000 0.000000 -10.140303 -4.440922 0.624247 -79.437929 -21.259615 33.923663 -2.691708 -31.695783 -0.004869 2.665021 -1.646075 -0.043282 -0.085412 0.196993 0.000000 0.000000 0.000000 0.000000 0.000000 0.000000 0.000000 23.246815 -3.331395 -0.615968 71.402698 -1.194177 -7.345792 3.726545 13.857037 0.004019 3.142958 3.746210 0.101038 0.058088 -0.002688 0.000000 0.000000 0.000000 0.000000 0.000000 0.000000 0.000000 
1.689827 17.035615 2.986739 3.274485 35.155134 17.530808 -11.367604 2.169165 -4.122119 -5.634439 17.174176 -7.641205 -1.748393 1.069371 22.744511 1.603648 11.679421 -0.542129 1.346200 -0.000000 -64.478700 8.758725 0.512478 -0.559595 11.484151 -3.763859 -35.748998 2.247947 -0.254757 14.390493 -2.900318 -12.955299 -2.431027 -2.531800 -0.000000 -7.682800 5.942138 -1.984249 8.446906 0.220339 -1.750028 -1.264521 -7.461764 -1.815536 0.648701 9.736781 1.490488 4.585312 -5.411551 -0.435084 2.842192 0.000000 0.000000 0.000000 -10.078426 -4.478509 0.635782 -80.014387 -20.816505 34.360245 -2.675059 -31.376164 -0.003202 1.998079 -1.350048 -0.027111 -0.077287 0.195091 0.000000 0.000000 0.000000 0.000000 0.000000 0.000000 0.000000 23.092038 -3.036671 -0.607927 71.360466 -0.925767 -7.381980 3.729903 13.726723 0.004207 3.120795 3.856463 0.103243 0.058335 -0.003632 0.000000 0.000000 0.000000 0.000000 0.000000 0.000000 0.000000 
1.696110 17.053118 3.093945 3.479242 35.183016 17.497396 -11.409600 2.203867 -4.194844 -5.325307 17.400116 -7.844512 -1.666845 1.202348 23.811158 1.554798 11.452728 0.867282 1.574000 -0.000000 -66.391100 8.778007 0.522330 -0.658175 11.416526 -3.858376 -35.350076 2.219418 -0.301265 14.933648 -2.926835 -12.905579 -3.141195 -2.331700 -0.000000 -6.949400 5.970155 -2.010132 8.619404 0.237936 -1.760957 -1.239853 -7.402239 -1.829694 0.609565 9.801231 1.725434 4.688176 -5.364581 -0.432927 2.868895 0.000000 0.000000 0.000000 -9.908892 -4.599336 0.650263 -80.547058 -20.372661 34.816379 -2.669023 -31.027923 -0.001198 1.229780 -1.003943 -0.012738 -0.068715 0.192175 0.000000 0.000000 0.000000 0.000000 0.000000 0.000000 0.000000 22.948710 -2.782669 -0.604263 71.316926 -0.628486 -7.304152 3.726749 13.672034 0.004367 3.102848 3.973168 0.105848 0.058198 -0.004425 0.000000 0.000000 0.000000 0.000000 0.000000 0.000000 0.000000 
1.700188 17.069081 3.202740 3.699493 35.287806 17.489578 -11.449875 2.237931 -4.249339 -5.001392 17.611643 -8.154097 -1.587619 1.336366 24.971537 1.503099 11.130932 2.269465 1.764700 0.000000 -68.202800 8.805014 0.533965 -0.752779 11.360676 -4.020452 -34.922605 2.193171 -0.329151 15.326461 -2.959464 -12.911318 -3.766463 -2.163600 0.000000 -6.336400 5.982860 -2.050191 8.752078 0.253450 -1.789925 -1.221308 -7.340334 -1.861643 0.575724 9.898654 1.939620 4.801965 -5.315601 -0.430822 2.899588 0.000000 0.000000 0.000000 -9.664990 -4.773930 0.668880 -81.014154 -19.949026 35.323711 -2.675046 -30.676293 0.001059 0.380477 -0.609762 -0.002265 -0.060136 0.188343 0.000000 0.000000 0.000000 0.000000 0.000000 0.000000 0.000000 22.818946 -2.561621 -0.607662 71.273824 -0.320502 -7.205771 3.720322 13.698162 0.004484 3.119720 4.087911 0.109552 0.057579 -0.005079 0.000000 0.000000 0.000000 0.000000 0.000000 0.000000 0.000000 
1.702616 17.083197 3.312411 3.919200 35.476212 17.494175 -11.492544 2.268252 -4.283054 -4.645887 17.795950 -8.564026 -1.508918 1.470885 26.222320 1.450132 10.714012 3.659516 1.911400 -0.000000 -69.894400 8.834238 0.545011 -0.849573 11.335727 -4.258395 -34.474266 2.171863 -0.342117 15.598343 -2.996448 -12.962636 -4.313654 -2.022500 -0.000000 -5.832200 5.998575 -2.101864 8.851039 0.270448 -1.834392 -1.207630 -7.275922 -1.908841 0.547037 10.024545 2.103270 4.919265 -5.266472 -0.428821 2.932333 0.000000 0.000000 0.000000 -9.351854 -5.018206 0.687358 -81.422663 -19.550717 35.874033 -2.689951 -30.320113 0.003441 -0.502894 -0.225526 0.002412 -0.051911 0.183974 0.000000 0.000000 0.000000 0.000000 0.000000 0.000000 0.000000 22.705819 -2.405982 -0.615722 71.212065 0.017873 -6.979817 3.708751 13.817492 0.004558 3.145035 4.197660 0.113456 0.056601 -0.005528 0.000000 0.000000 0.000000 0.000000 0.000000 0.000000 0.000000 
1.704156 17.095382 3.422837 4.133746 35.746795 17.526178 -11.538975 2.293388 -4.286764 -4.269077 17.925411 -9.094748 -1.429966 1.603619 27.560504 1.399834 10.222857 5.022524 2.011400 -0.000000 -71.351900 8.860683 0.553156 -0.941825 11.348683 -4.557019 -34.043257 2.156376 -0.342104 15.777904 -3.038679 -13.056252 -4.795164 -1.904700 -0.000000 -5.424899 6.028870 -2.162500 8.899946 0.291015 -1.893203 -1.202185 -7.210758 -1.970300 0.524574 10.176747 2.224117 5.036841 -5.217511 -0.426920 2.966476 0.000000 0.000000 0.000000 -9.005089 -5.306897 0.706036 -81.757140 -19.193098 36.468830 -2.712105 -29.982580 0.005787 -1.376577 0.134833 0.001292 -0.044482 0.179334 0.000000 0.000000 0.000000 0.000000 0.000000 0.000000 0.000000 22.609890 -2.305669 -0.628919 71.127668 0.376489 -6.683847 3.693953 14.030099 0.004586 3.193170 4.301154 0.118059 0.055240 -0.005833 0.000000 0.000000 0.000000 0.000000 0.000000 0.000000 0.000000 
